<svg id="e0a6935a-73fa-4594-9bc5-c1a6f2fb01c2" data-name="Logos" xmlns="http://www.w3.org/2000/svg" xmlns:xlink="http://www.w3.org/1999/xlink" viewBox="0 0 300 300"><defs><style>.e4b6c416-9e70-4583-b92c-ab4639cc2298{fill:url(#b75d8d32-6098-4354-bc06-96db60bccc9e);}.b35a9a60-969d-4d72-8ca8-156e607cfb04{fill:url(#a42c16c2-1ed4-48ad-8166-3c1084096a10);}.b7479540-7388-4777-af40-2b34a0ffc21d{fill:#2680ff;}.f63ea1fd-f167-4bf5-a938-a2bf5b58549d{mask:url(#a4d78ad9-f3c8-422f-b006-4c7d6bc82f06);}.bf7f6fc0-dfd0-4cde-9e35-4e7310cc6d47{fill:#0052c6;}</style><linearGradient id="b75d8d32-6098-4354-bc06-96db60bccc9e" x1="145.51" y1="-817.56" x2="110.5" y2="-852.57" gradientTransform="matrix(1, 0, 0, -1, 0, -718)" gradientUnits="userSpaceOnUse"><stop offset="0.18" stop-color="#fff"/><stop offset="1"/></linearGradient><linearGradient id="a42c16c2-1ed4-48ad-8166-3c1084096a10" x1="154.79" y1="-918.14" x2="189.73" y2="-883.2" xlink:href="#b75d8d32-6098-4354-bc06-96db60bccc9e"/><mask id="a4d78ad9-f3c8-422f-b006-4c7d6bc82f06" x="67.99" y="65.21" width="164.02" height="169.58" maskUnits="userSpaceOnUse"><path class="e4b6c416-9e70-4583-b92c-ab4639cc2298" d="M150,124.93a42.23,42.23,0,0,1-.18-59.52L95,120.25l29.86,29.86Z"/><path class="b35a9a60-969d-4d72-8ca8-156e607cfb04" d="M175.14,149.93,150,175.07a42.22,42.22,0,0,1,0,59.7l0,0h0l55-55Z"/></mask></defs><title>techservicelogo_</title><g id="b2a94106-1889-429a-ab5a-f24020b92924" data-name="Jira"><path id="b9cca031-c022-4128-a183-8b18d55cc5b5" data-name="colorgroup3" class="b7479540-7388-4777-af40-2b34a0ffc21d" d="M230.05,145.25l-73-73L150,65.21h0L95.07,120.14h0L70,145.25a6.74,6.74,0,0,0,0,9.5l50.19,50.18L150,234.79l54.93-54.93.85-.85,24.27-24.26A6.74,6.74,0,0,0,230.05,145.25ZM150,175.07,124.93,150,150,124.93,175.07,150Z"/><g class="f63ea1fd-f167-4bf5-a938-a2bf5b58549d"><path id="a5eee6a1-c534-42c4-9d9f-bc184180341f" data-name="colorgroup1" class="bf7f6fc0-dfd0-4cde-9e35-4e7310cc6d47" d="M230.05,145.25l-73-73L150,65.21h0L95.07,120.14h0L70,145.25a6.74,6.74,0,0,0,0,9.5l50.19,50.18L150,234.79l54.93-54.93.85-.85,24.27-24.26A6.74,6.74,0,0,0,230.05,145.25ZM150,175.07,124.93,150,150,124.93,175.07,150Z"/></g></g></svg>